<svg width="156" height="36" viewBox="0 0 156 36" fill="none" xmlns="http://www.w3.org/2000/svg">
<path d="M15.0799 22.7275V19.3644H21.2955V16.727H15.0799V14.1198C15.0799 13.8176 15.3233 13.5725 15.6232 13.5725H21.6804V10.9012H13.7879C12.6411 10.9012 11.7111 11.838 11.7111 12.9932V25.3801H21.738V22.7275H15.0799ZM28.5791 22.7825C27.2891 22.804 26.1128 21.9402 26.0846 20.3754C26.0564 18.8096 27.0916 17.926 28.3816 17.9036C28.9829 17.8942 29.5878 18.0707 30.0516 18.3971L31.3901 16.0675C30.4502 15.5602 29.4177 15.2898 28.2899 15.3087C25.3263 15.3587 22.935 17.2922 22.9923 20.4279C23.0488 23.5817 25.6182 25.4282 28.5809 25.3791C29.7474 25.3593 30.8717 25.0269 31.7649 24.4542L30.2597 22.2193C29.8612 22.5818 29.1946 22.7713 28.5791 22.7825ZM43.707 14.6783C40.6506 14.6783 38.6584 16.7845 38.6584 20.0653C38.6584 23.31 40.7377 25.3801 43.8191 25.3801C45.8302 25.3801 47.543 24.5405 48.4322 23.0599L46.2209 21.6696C45.8009 22.4126 45.0282 22.9362 43.9338 22.9362C42.6652 22.9362 41.7752 22.251 41.6294 20.978H48.6754C48.7047 20.1321 48.6711 19.2049 48.5451 18.6199C48.0536 16.3286 46.3167 14.6783 43.707 14.6783ZM41.6768 18.9657C41.6915 18.6723 41.7579 18.3283 41.8648 18.0918C41.9726 17.8561 42.1227 17.6503 42.3038 17.4824C42.666 17.1456 43.155 16.9561 43.6932 16.9561C44.2503 16.9561 44.7272 17.1384 45.0782 17.4706C45.2533 17.6368 45.3982 17.8408 45.506 18.0791C45.6138 18.3157 45.6845 18.6642 45.7138 18.9657H41.6768ZM55.5264 22.7825C54.2364 22.804 53.0602 21.9402 53.0311 20.3754C53.0037 18.8096 54.038 17.926 55.328 17.9036C55.9294 17.8942 56.5351 18.0707 56.9989 18.3971L58.3374 16.0675C57.3966 15.5602 56.3641 15.2898 55.2372 15.3087C52.2736 15.3587 49.8823 17.2922 49.9396 20.4279C49.9961 23.5817 52.5655 25.4282 55.5282 25.3791C56.6947 25.3593 57.819 25.0269 58.7122 24.4542L57.207 22.2193C56.8076 22.5818 56.141 22.7713 55.5264 22.7825ZM62.9448 21.3004V17.9267H65.6536V15.4981H62.9448V13.4193H59.9655V21.8018C59.9655 24.6206 61.6039 25.57 64.4807 25.3495C65.0137 25.309 65.7381 25.1608 66.2324 25.0152L65.5835 22.7666C63.8211 23.1328 62.9448 22.6684 62.9448 21.3004ZM70.9121 21.5784V15.3078H68.1124V22.2157C68.1124 24.7335 69.557 25.7802 72.2571 25.2428C72.4774 25.199 72.9882 25.0753 73.1258 25.0105L72.5163 22.8171C71.4119 23.0556 70.9121 22.6742 70.9121 21.5784ZM79.3406 22.7825C78.0507 22.804 76.8746 21.9402 76.8455 20.3754C76.8173 18.8096 77.8532 17.926 79.1422 17.9036C79.7435 17.8942 80.3492 18.0707 80.813 18.3971L82.1505 16.0675C81.2106 15.5602 80.1782 15.2898 79.0505 15.3087C76.0882 15.3587 73.6971 17.2922 73.7535 20.4279C73.8108 23.5817 76.38 25.4282 79.3424 25.3791C80.5088 25.3593 81.6329 25.0269 82.5261 24.4542L81.0211 22.2193C80.6217 22.5818 79.9551 22.7713 79.3406 22.7825ZM37.2742 22.828C36.342 22.9843 35.8184 22.6001 35.8184 21.5518V10.9012H33.0182V22.193C33.0182 24.7295 34.4192 25.7814 37.1636 25.2427C37.384 25.2003 37.8949 25.0749 38.0317 25.0095L37.4228 22.7997C37.3722 22.8103 37.3224 22.8201 37.2742 22.828ZM69.6795 14.0488C70.545 14.0488 71.2458 13.3441 71.2458 12.475C71.2458 11.6059 70.545 10.9012 69.6795 10.9012C68.8141 10.9012 68.1124 11.6059 68.1124 12.475C68.1124 13.3441 68.8141 14.0488 69.6795 14.0488Z" fill="#BCC2C8"/>
<path d="M87.5396 10.9011H84.4061V25.3801H87.5396V10.9011Z" fill="#BCC2C8"/>
<path d="M97.1185 24.7505C96.5483 24.7505 95.6569 24.72 95.0143 24.6343C92.7046 24.3268 90.8308 23.1035 89.739 21.1926C89.1115 20.0943 88.7929 18.8571 88.7929 17.5185C88.7929 13.522 92.1141 10.2717 96.1961 10.2717C100.278 10.2717 103.599 13.522 103.599 17.5185C103.599 18.7033 103.304 19.875 102.743 20.92L99.7477 19.3176C100.008 18.7584 100.147 18.1406 100.147 17.5177C100.147 15.2529 98.3744 13.4102 96.1961 13.4102C94.0179 13.4102 92.2456 15.2529 92.2456 17.5177C92.2456 18.2368 92.4292 18.9471 92.7743 19.5692C93.3436 20.5915 94.28 21.3132 95.3444 21.5518C95.7195 21.6339 96.2147 21.6706 96.9508 21.6706H102.696L104.46 24.7505H97.1185Z" fill="#BCC2C8"/>
<path fill-rule="evenodd" clip-rule="evenodd" d="M111.595 30.4854L111.595 5.16626L113.595 5.16626L113.595 30.4854L111.595 30.4854Z" fill="#6B7585"/>
<path d="M120.35 24.4405H129.782V22.4605H122.564V19.0765H128.882V17.0965H122.564V13.8205H129.692V11.8405H120.35V24.4405Z" fill="#BCC2C8"/>
<path d="M132.409 24.4405H134.623V20.0485H137.395L140.491 24.4405H143.101L139.699 19.6705C141.463 19.1665 142.705 17.9245 142.705 15.8545V15.8185C142.705 14.7205 142.327 13.7845 141.661 13.1005C140.851 12.3085 139.609 11.8405 138.025 11.8405H132.409V24.4405ZM134.623 18.0865V13.8565H137.845C139.483 13.8565 140.455 14.5945 140.455 15.9445V15.9805C140.455 17.2585 139.447 18.0865 137.863 18.0865H134.623Z" fill="#BCC2C8"/>
</svg>
