<?xml version="1.0" encoding="utf-8"?>
<!-- Generator: Adobe Illustrator 25.2.0, SVG Export Plug-In . SVG Version: 6.00 Build 0)  -->
<svg version="1.1" id="Laag_1" xmlns="http://www.w3.org/2000/svg" xmlns:xlink="http://www.w3.org/1999/xlink" x="0px" y="0px"
	 width="206.929px" height="42.52px" viewBox="0 0 206.929 42.52" style="enable-background:new 0 0 206.929 42.52;"
	 xml:space="preserve">
<style type="text/css">
	.st0{fill:#FFF16F;}
	.st1{fill:#FFFFFF;}
</style>
<path class="st0" d="M206.929,42.52h-73.701V8.504c0-4.696,3.807-8.504,8.504-8.504h65.197L206.929,42.52L206.929,42.52z"/>
<g>
	<rect x="141.866" y="12.192" width="1.038" height="5.959"/>
	<path d="M144.385,13.657h1.038v0.705c0.073-0.109,0.154-0.211,0.242-0.305s0.19-0.179,0.306-0.254
		c0.115-0.074,0.243-0.132,0.382-0.175c0.138-0.043,0.296-0.065,0.47-0.065c0.51,0,0.903,0.156,1.18,0.468
		c0.278,0.313,0.416,0.732,0.416,1.26v2.86h-1.038v-2.548c0-0.35-0.083-0.621-0.249-0.81c-0.166-0.191-0.401-0.285-0.705-0.285
		c-0.298,0-0.54,0.097-0.726,0.293c-0.185,0.195-0.278,0.468-0.278,0.819v2.531h-1.038L144.385,13.657L144.385,13.657z"/>
	<path d="M151.177,18.227c-0.187,0-0.361-0.022-0.521-0.067c-0.161-0.046-0.299-0.12-0.416-0.222
		c-0.118-0.103-0.208-0.236-0.271-0.404c-0.063-0.167-0.094-0.376-0.094-0.626v-2.367h-0.57v-0.884h0.57v-1.235h1.038v1.235h1.209
		v0.884h-1.209v2.206c0,0.198,0.048,0.341,0.145,0.429c0.097,0.088,0.232,0.132,0.409,0.132c0.221,0,0.434-0.051,0.638-0.153v0.843
		c-0.13,0.074-0.27,0.13-0.417,0.169C151.54,18.207,151.37,18.227,151.177,18.227"/>
	<path d="M155.213,18.253c-0.324,0-0.626-0.058-0.907-0.171c-0.281-0.113-0.525-0.272-0.732-0.476
		c-0.207-0.205-0.37-0.45-0.489-0.737c-0.12-0.286-0.179-0.602-0.179-0.949v-0.017c0-0.323,0.054-0.627,0.162-0.911
		c0.107-0.283,0.259-0.532,0.455-0.744c0.195-0.213,0.427-0.381,0.693-0.503c0.267-0.122,0.563-0.182,0.886-0.182
		c0.358,0,0.671,0.065,0.941,0.195c0.269,0.131,0.493,0.307,0.672,0.528s0.314,0.478,0.405,0.771
		c0.09,0.292,0.135,0.599,0.135,0.923c0,0.045,0,0.092-0.003,0.14c-0.003,0.049-0.008,0.098-0.013,0.15h-3.303
		c0.057,0.368,0.202,0.65,0.439,0.846c0.235,0.196,0.52,0.294,0.855,0.294c0.255,0,0.477-0.046,0.663-0.136
		c0.188-0.091,0.372-0.224,0.554-0.4l0.604,0.536c-0.215,0.255-0.472,0.459-0.77,0.613
		C155.983,18.176,155.627,18.253,155.213,18.253 M156.234,15.588c-0.017-0.164-0.054-0.319-0.11-0.464
		c-0.057-0.144-0.134-0.269-0.231-0.374c-0.096-0.105-0.211-0.188-0.345-0.251c-0.132-0.062-0.285-0.094-0.455-0.094
		c-0.317,0-0.58,0.11-0.787,0.328s-0.334,0.503-0.379,0.855C153.927,15.588,156.234,15.588,156.234,15.588z"/>
	<rect x="158.353" y="11.937" width="1.039" height="6.214"/>
	<rect x="160.788" y="11.937" width="1.039" height="6.214"/>
	<path d="M163.179,11.988h1.115v0.979h-1.115V11.988z M163.222,13.657h1.038v4.494h-1.038V13.657z"/>
	<path d="M167.597,19.529c-0.749,0-1.419-0.176-2.009-0.53l0.383-0.772c0.238,0.147,0.488,0.264,0.749,0.349
		c0.261,0.085,0.545,0.128,0.852,0.128c0.46,0,0.811-0.117,1.055-0.351c0.244-0.234,0.367-0.578,0.367-1.034v-0.352
		c-0.188,0.244-0.407,0.443-0.657,0.597c-0.249,0.152-0.558,0.229-0.927,0.229c-0.267,0-0.522-0.048-0.766-0.144
		c-0.244-0.097-0.461-0.235-0.651-0.413c-0.191-0.179-0.342-0.399-0.456-0.661c-0.114-0.26-0.17-0.555-0.17-0.884v-0.017
		c0-0.329,0.056-0.626,0.17-0.89s0.265-0.485,0.456-0.664c0.19-0.178,0.408-0.316,0.655-0.413c0.247-0.096,0.501-0.144,0.762-0.144
		c0.38,0,0.694,0.075,0.94,0.225c0.247,0.151,0.459,0.33,0.635,0.54v-0.672h1.03v3.576c0,0.749-0.19,1.313-0.57,1.693
		c-0.205,0.204-0.462,0.356-0.771,0.456C168.365,19.48,168.005,19.529,167.597,19.529 M167.682,16.925
		c0.176,0,0.345-0.03,0.507-0.09c0.161-0.059,0.302-0.144,0.421-0.255c0.119-0.11,0.215-0.241,0.285-0.391
		c0.071-0.151,0.106-0.317,0.106-0.498v-0.017c0-0.187-0.035-0.356-0.106-0.507c-0.07-0.15-0.166-0.281-0.285-0.391
		c-0.119-0.111-0.26-0.197-0.421-0.256c-0.162-0.06-0.331-0.089-0.507-0.089c-0.182,0-0.349,0.029-0.502,0.089
		c-0.153,0.059-0.288,0.143-0.404,0.252c-0.116,0.107-0.207,0.236-0.273,0.386c-0.065,0.151-0.097,0.32-0.097,0.507v0.017
		c0,0.187,0.034,0.356,0.101,0.507c0.069,0.15,0.159,0.281,0.273,0.391c0.113,0.111,0.248,0.196,0.404,0.255
		C167.34,16.895,167.506,16.925,167.682,16.925"/>
	<path d="M173.36,18.253c-0.324,0-0.626-0.058-0.907-0.171c-0.281-0.113-0.525-0.272-0.732-0.476
		c-0.207-0.205-0.37-0.45-0.489-0.737c-0.12-0.286-0.179-0.602-0.179-0.949v-0.017c0-0.323,0.054-0.627,0.162-0.911
		c0.107-0.283,0.259-0.532,0.455-0.744c0.195-0.213,0.427-0.381,0.693-0.503c0.267-0.122,0.563-0.182,0.886-0.182
		c0.358,0,0.671,0.065,0.941,0.195c0.269,0.131,0.493,0.307,0.672,0.528s0.314,0.478,0.405,0.771
		c0.09,0.292,0.135,0.599,0.135,0.923c0,0.045,0,0.092-0.003,0.14c-0.003,0.049-0.008,0.098-0.013,0.15h-3.303
		c0.057,0.368,0.202,0.65,0.439,0.846c0.235,0.196,0.52,0.294,0.855,0.294c0.255,0,0.477-0.046,0.663-0.136
		c0.188-0.091,0.372-0.224,0.554-0.4l0.604,0.536c-0.215,0.255-0.472,0.459-0.77,0.613C174.13,18.176,173.774,18.253,173.36,18.253
		 M174.381,15.588c-0.017-0.164-0.054-0.319-0.11-0.464c-0.057-0.144-0.134-0.269-0.231-0.374c-0.096-0.105-0.211-0.188-0.345-0.251
		c-0.132-0.062-0.285-0.094-0.455-0.094c-0.317,0-0.58,0.11-0.787,0.328s-0.334,0.503-0.379,0.855
		C172.074,15.588,174.381,15.588,174.381,15.588z"/>
	<path d="M176.441,13.657h1.039v0.705c0.073-0.109,0.153-0.211,0.241-0.305s0.19-0.179,0.306-0.254
		c0.116-0.074,0.243-0.132,0.382-0.175c0.138-0.043,0.296-0.065,0.471-0.065c0.509,0,0.903,0.156,1.18,0.468
		c0.277,0.313,0.416,0.732,0.416,1.26v2.86h-1.039v-2.548c0-0.35-0.083-0.621-0.249-0.81c-0.166-0.191-0.4-0.285-0.704-0.285
		c-0.298,0-0.54,0.097-0.726,0.293c-0.185,0.195-0.278,0.468-0.278,0.819v2.531h-1.039V13.657z"/>
	<path d="M183.804,18.253c-0.335,0-0.644-0.062-0.928-0.184s-0.53-0.288-0.739-0.498s-0.372-0.456-0.489-0.74
		s-0.176-0.584-0.176-0.902v-0.017c0-0.318,0.059-0.62,0.176-0.907c0.117-0.286,0.28-0.536,0.489-0.749
		c0.209-0.213,0.457-0.382,0.743-0.506c0.287-0.125,0.598-0.187,0.933-0.187c0.426,0,0.779,0.071,1.059,0.212
		c0.282,0.142,0.527,0.33,0.737,0.562l-0.639,0.689c-0.158-0.164-0.327-0.298-0.506-0.404c-0.179-0.104-0.399-0.157-0.66-0.157
		c-0.187,0-0.36,0.038-0.519,0.114c-0.159,0.077-0.295,0.179-0.409,0.307c-0.113,0.128-0.203,0.28-0.267,0.456
		c-0.066,0.176-0.099,0.36-0.099,0.553v0.017c0,0.198,0.033,0.386,0.099,0.562c0.064,0.175,0.157,0.329,0.276,0.46
		c0.119,0.13,0.261,0.233,0.426,0.31c0.164,0.076,0.346,0.114,0.545,0.114c0.243,0,0.458-0.051,0.642-0.157
		c0.184-0.104,0.359-0.239,0.524-0.404l0.621,0.613c-0.222,0.249-0.474,0.452-0.758,0.609
		C184.602,18.175,184.241,18.253,183.804,18.253"/>
	<path d="M188.64,18.253c-0.324,0-0.626-0.058-0.907-0.171c-0.281-0.113-0.525-0.272-0.732-0.476
		c-0.207-0.205-0.37-0.45-0.489-0.737c-0.12-0.286-0.179-0.602-0.179-0.949v-0.017c0-0.323,0.054-0.627,0.162-0.911
		c0.107-0.283,0.259-0.532,0.455-0.744c0.195-0.213,0.427-0.381,0.693-0.503c0.267-0.122,0.563-0.182,0.886-0.182
		c0.358,0,0.671,0.065,0.941,0.195c0.269,0.131,0.493,0.307,0.672,0.528s0.314,0.478,0.405,0.771
		c0.09,0.292,0.135,0.599,0.135,0.923c0,0.045,0,0.092-0.003,0.14c-0.003,0.049-0.008,0.098-0.013,0.15h-3.303
		c0.057,0.368,0.202,0.65,0.439,0.846c0.235,0.196,0.52,0.294,0.855,0.294c0.255,0,0.477-0.046,0.663-0.136
		c0.188-0.091,0.372-0.224,0.554-0.4l0.604,0.536c-0.215,0.255-0.472,0.459-0.77,0.613C189.41,18.176,189.054,18.253,188.64,18.253
		 M189.661,15.588c-0.017-0.164-0.054-0.319-0.11-0.464c-0.057-0.144-0.134-0.269-0.231-0.374c-0.096-0.105-0.211-0.188-0.345-0.251
		c-0.132-0.062-0.285-0.094-0.455-0.094c-0.317,0-0.58,0.11-0.787,0.328s-0.334,0.503-0.379,0.855
		C187.354,15.588,189.661,15.588,189.661,15.588z"/>
	<path d="M144.436,28.366v-0.554c-0.154,0.182-0.349,0.335-0.587,0.46c-0.239,0.125-0.529,0.188-0.868,0.188
		c-0.216,0-0.421-0.031-0.614-0.09c-0.193-0.06-0.361-0.148-0.507-0.264c-0.144-0.116-0.26-0.261-0.348-0.434
		c-0.088-0.173-0.132-0.373-0.132-0.6v-0.017c0-0.25,0.045-0.466,0.136-0.651s0.217-0.338,0.379-0.46s0.354-0.213,0.579-0.272
		c0.223-0.06,0.466-0.089,0.727-0.089c0.273,0,0.504,0.016,0.695,0.05c0.189,0.035,0.373,0.08,0.548,0.136v-0.085
		c0-0.311-0.095-0.55-0.285-0.715c-0.19-0.164-0.464-0.247-0.821-0.247c-0.256,0-0.482,0.027-0.682,0.077
		c-0.198,0.051-0.399,0.12-0.603,0.205l-0.281-0.826c0.25-0.114,0.504-0.205,0.765-0.272c0.262-0.068,0.576-0.103,0.945-0.103
		c0.669,0,1.166,0.166,1.49,0.498c0.323,0.332,0.485,0.799,0.485,1.401v2.664C145.457,28.366,144.436,28.366,144.436,28.366z
		 M144.461,26.485c-0.13-0.052-0.285-0.094-0.464-0.128s-0.367-0.051-0.565-0.051c-0.325,0-0.576,0.063-0.758,0.187
		c-0.182,0.125-0.273,0.296-0.273,0.511v0.017c0,0.216,0.084,0.38,0.251,0.493c0.167,0.115,0.373,0.171,0.618,0.171
		c0.17,0,0.328-0.022,0.472-0.068c0.145-0.045,0.271-0.11,0.379-0.192s0.192-0.181,0.251-0.297c0.06-0.117,0.089-0.247,0.089-0.388
		L144.461,26.485L144.461,26.485z"/>
	<path d="M148.199,28.442c-0.187,0-0.361-0.022-0.521-0.067c-0.161-0.046-0.299-0.12-0.416-0.222
		c-0.119-0.103-0.209-0.236-0.271-0.404c-0.063-0.167-0.095-0.376-0.095-0.626v-2.367h-0.57v-0.884h0.57v-1.235h1.039v1.235h1.208
		v0.884h-1.208v2.206c0,0.198,0.048,0.341,0.145,0.429c0.096,0.088,0.232,0.132,0.408,0.132c0.222,0,0.435-0.051,0.639-0.153v0.843
		c-0.131,0.074-0.27,0.13-0.417,0.169C148.562,28.422,148.391,28.442,148.199,28.442"/>
	<path d="M154.242,28.442c-0.187,0-0.361-0.022-0.521-0.067c-0.161-0.046-0.299-0.12-0.416-0.222
		c-0.118-0.103-0.208-0.236-0.271-0.404c-0.063-0.167-0.094-0.376-0.094-0.626v-2.367h-0.57v-0.884h0.57v-1.235h1.038v1.235h1.209
		v0.884h-1.209v2.206c0,0.198,0.048,0.341,0.145,0.429s0.232,0.132,0.409,0.132c0.221,0,0.434-0.051,0.638-0.153v0.843
		c-0.13,0.074-0.27,0.13-0.417,0.169C154.605,28.422,154.435,28.442,154.242,28.442"/>
	<path d="M156.216,22.151h1.039v2.425c0.073-0.109,0.153-0.211,0.241-0.304c0.088-0.095,0.19-0.18,0.306-0.254
		c0.116-0.075,0.243-0.133,0.382-0.176c0.138-0.043,0.296-0.065,0.471-0.065c0.509,0,0.903,0.157,1.18,0.468
		c0.277,0.313,0.416,0.733,0.416,1.26v2.86h-1.039v-2.547c0-0.351-0.083-0.622-0.249-0.811c-0.166-0.19-0.4-0.285-0.704-0.285
		c-0.298,0-0.54,0.097-0.726,0.293c-0.185,0.195-0.278,0.469-0.278,0.819v2.531h-1.039V22.151z"/>
	<path d="M163.555,28.468c-0.325,0-0.626-0.058-0.908-0.171c-0.28-0.113-0.524-0.272-0.731-0.476
		c-0.208-0.205-0.371-0.45-0.49-0.737c-0.12-0.286-0.179-0.602-0.179-0.949v-0.017c0-0.323,0.055-0.627,0.162-0.911
		c0.107-0.283,0.26-0.532,0.455-0.744c0.196-0.213,0.428-0.381,0.694-0.503c0.267-0.122,0.562-0.182,0.885-0.182
		c0.358,0,0.671,0.065,0.941,0.195c0.269,0.131,0.494,0.307,0.672,0.528c0.179,0.221,0.314,0.478,0.405,0.771
		c0.091,0.292,0.136,0.599,0.136,0.923c0,0.045-0.001,0.092-0.004,0.14c-0.003,0.049-0.007,0.098-0.013,0.15h-3.303
		c0.057,0.368,0.203,0.65,0.439,0.846c0.235,0.196,0.52,0.294,0.855,0.294c0.256,0,0.477-0.046,0.664-0.136
		c0.188-0.091,0.371-0.224,0.553-0.4l0.604,0.536c-0.215,0.255-0.471,0.459-0.77,0.613
		C164.324,28.391,163.969,28.468,163.555,28.468 M164.576,25.803c-0.018-0.164-0.055-0.319-0.111-0.464
		c-0.057-0.144-0.133-0.269-0.23-0.374c-0.096-0.105-0.212-0.188-0.345-0.251c-0.133-0.062-0.285-0.094-0.455-0.094
		c-0.318,0-0.581,0.11-0.788,0.328s-0.333,0.503-0.379,0.855C162.268,25.803,164.576,25.803,164.576,25.803z"/>
	<path d="M171.274,28.468c-0.335,0-0.644-0.062-0.928-0.184s-0.53-0.288-0.739-0.498s-0.372-0.456-0.489-0.74
		s-0.176-0.584-0.176-0.902v-0.017c0-0.318,0.059-0.62,0.176-0.907c0.117-0.286,0.28-0.536,0.489-0.749
		c0.209-0.213,0.457-0.382,0.743-0.506c0.287-0.125,0.598-0.187,0.933-0.187c0.426,0,0.779,0.071,1.059,0.212
		c0.282,0.142,0.527,0.33,0.737,0.562l-0.639,0.689c-0.158-0.164-0.327-0.298-0.506-0.404c-0.179-0.104-0.399-0.157-0.66-0.157
		c-0.187,0-0.36,0.038-0.519,0.114c-0.159,0.077-0.295,0.179-0.409,0.307c-0.113,0.128-0.203,0.28-0.267,0.456
		c-0.066,0.176-0.099,0.36-0.099,0.553v0.017c0,0.198,0.033,0.386,0.099,0.562c0.064,0.175,0.157,0.329,0.276,0.46
		c0.119,0.13,0.261,0.233,0.426,0.31c0.164,0.076,0.346,0.114,0.545,0.114c0.243,0,0.458-0.051,0.642-0.157
		c0.184-0.104,0.359-0.239,0.524-0.404l0.621,0.613c-0.222,0.249-0.474,0.452-0.758,0.609
		C172.072,28.39,171.711,28.468,171.274,28.468"/>
	<path d="M176.186,28.469c-0.34,0-0.657-0.062-0.949-0.184s-0.545-0.288-0.758-0.498s-0.379-0.456-0.498-0.74
		c-0.119-0.285-0.178-0.584-0.178-0.903v-0.016c0-0.325,0.061-0.627,0.183-0.911c0.122-0.285,0.289-0.533,0.502-0.746
		c0.213-0.212,0.466-0.381,0.758-0.505c0.292-0.125,0.611-0.188,0.957-0.188c0.347,0,0.666,0.061,0.958,0.183
		c0.292,0.122,0.545,0.29,0.758,0.503c0.213,0.212,0.379,0.459,0.498,0.74c0.119,0.28,0.179,0.583,0.179,0.906v0.018
		c0,0.317-0.062,0.618-0.184,0.902c-0.122,0.283-0.289,0.531-0.502,0.744s-0.467,0.382-0.762,0.507S176.532,28.469,176.186,28.469
		 M176.203,27.574c0.209,0,0.396-0.038,0.562-0.114c0.167-0.077,0.31-0.181,0.428-0.311c0.118-0.131,0.209-0.282,0.271-0.456
		c0.062-0.173,0.093-0.355,0.093-0.549v-0.016c0-0.2-0.034-0.387-0.102-0.563c-0.067-0.176-0.162-0.329-0.283-0.459
		c-0.121-0.131-0.265-0.234-0.432-0.311c-0.166-0.076-0.35-0.115-0.554-0.115c-0.203,0-0.387,0.039-0.553,0.115
		c-0.167,0.077-0.31,0.178-0.428,0.306s-0.209,0.281-0.271,0.456c-0.061,0.176-0.092,0.361-0.092,0.553v0.018
		c0,0.198,0.033,0.384,0.101,0.557c0.068,0.173,0.162,0.327,0.283,0.459c0.122,0.134,0.265,0.239,0.432,0.316
		C175.824,27.536,176.006,27.574,176.203,27.574"/>
	<path d="M179.642,23.872h1.038v1.013c0.142-0.341,0.344-0.614,0.605-0.818c0.26-0.204,0.589-0.298,0.987-0.28v1.089h-0.06
		c-0.226,0-0.433,0.037-0.621,0.111c-0.187,0.073-0.349,0.184-0.485,0.332c-0.137,0.148-0.241,0.333-0.316,0.557
		c-0.073,0.225-0.11,0.484-0.11,0.779v1.711h-1.038V23.872z"/>
	<path d="M185.218,28.468c-0.324,0-0.626-0.058-0.907-0.171c-0.281-0.113-0.525-0.272-0.732-0.476
		c-0.207-0.205-0.37-0.45-0.489-0.737c-0.12-0.286-0.179-0.602-0.179-0.949v-0.017c0-0.323,0.054-0.627,0.162-0.911
		c0.107-0.283,0.259-0.532,0.455-0.744c0.195-0.213,0.427-0.381,0.693-0.503c0.267-0.122,0.563-0.182,0.886-0.182
		c0.358,0,0.671,0.065,0.941,0.195c0.269,0.131,0.493,0.307,0.672,0.528s0.314,0.478,0.405,0.771
		c0.09,0.292,0.135,0.599,0.135,0.923c0,0.045,0,0.092-0.003,0.14c-0.003,0.049-0.008,0.098-0.013,0.15h-3.303
		c0.057,0.368,0.202,0.65,0.439,0.846c0.235,0.196,0.52,0.294,0.855,0.294c0.255,0,0.477-0.046,0.663-0.136
		c0.188-0.091,0.372-0.224,0.554-0.4l0.604,0.536c-0.215,0.255-0.472,0.459-0.77,0.613
		C185.988,28.391,185.632,28.468,185.218,28.468 M186.239,25.803c-0.017-0.164-0.054-0.319-0.11-0.464
		c-0.057-0.144-0.134-0.269-0.231-0.374c-0.096-0.105-0.211-0.188-0.345-0.251c-0.132-0.062-0.285-0.094-0.455-0.094
		c-0.317,0-0.58,0.11-0.787,0.328s-0.334,0.503-0.379,0.855C183.932,25.803,186.239,25.803,186.239,25.803z"/>
</g>
<path d="M133.228,42.52H0V8.504C0,3.808,3.807,0,8.504,0h124.724V42.52z"/>
<path class="st1" d="M17.987,25.372v-3.773h7.024V18.64h-7.024v-2.925c0-0.339,0.275-0.614,0.614-0.614h6.845v-2.997h-8.919
	c-1.296,0-2.347,1.051-2.347,2.347v13.897h11.331v-2.976H17.987z"/>
<path class="st1" d="M33.536,25.483c-1.463,0.025-2.797-0.978-2.829-2.795c-0.032-1.818,1.142-2.844,2.605-2.87
	c0.682-0.011,1.368,0.194,1.894,0.573l1.518-2.705c-1.066-0.589-2.237-0.903-3.516-0.881c-3.361,0.058-6.073,2.303-6.008,5.944
	c0.064,3.662,2.978,5.806,6.338,5.749c1.323-0.023,2.598-0.409,3.611-1.074l-1.707-2.595C34.99,25.25,34.234,25.47,33.536,25.483"/>
<path class="st1" d="M50.813,16.731c-3.544,0-5.854,2.333-5.854,5.967c0,3.594,2.411,5.887,5.984,5.887
	c2.332,0,4.318-0.93,5.349-2.57l-2.564-1.54c-0.487,0.823-1.383,1.403-2.652,1.403c-1.471,0-2.503-0.759-2.672-2.169h8.17
	c0.034-0.937-0.005-1.964-0.151-2.612C55.853,18.559,53.839,16.731,50.813,16.731 M48.459,21.48
	c0.017-0.325,0.094-0.706,0.218-0.968c0.125-0.261,0.299-0.489,0.509-0.675c0.42-0.373,0.987-0.583,1.611-0.583
	c0.646,0,1.199,0.202,1.606,0.57c0.203,0.184,0.371,0.41,0.496,0.674c0.125,0.262,0.207,0.648,0.241,0.982H48.459z"/>
<path class="st1" d="M64.747,25.483c-1.463,0.025-2.797-0.978-2.83-2.795c-0.031-1.818,1.142-2.844,2.605-2.87
	c0.682-0.011,1.369,0.194,1.895,0.573l1.518-2.705c-1.067-0.589-2.238-0.903-3.516-0.881c-3.361,0.058-6.073,2.303-6.008,5.944
	c0.064,3.662,2.978,5.806,6.338,5.749c1.323-0.023,2.598-0.409,3.611-1.074l-1.707-2.595C66.2,25.25,65.444,25.47,64.747,25.483"/>
<path class="st1" d="M73.077,23.745v-3.916h3.014V17.01h-3.014v-2.413h-3.315v9.73c0,3.272,1.823,4.374,5.024,4.118
	c0.593-0.047,1.399-0.219,1.949-0.388l-0.722-2.61C74.052,25.872,73.077,25.333,73.077,23.745"/>
<path class="st1" d="M81.904,24.163V17.01h-3.316v7.48v0.4c0,2.872,1.711,4.066,4.909,3.453c0.261-0.05,0.866-0.191,1.029-0.265
	l-0.722-2.502C82.496,25.848,81.904,25.413,81.904,24.163"/>
<path class="st1" d="M91.334,25.483c-1.463,0.025-2.797-0.978-2.83-2.795c-0.032-1.818,1.143-2.844,2.605-2.87
	c0.682-0.011,1.369,0.194,1.895,0.573l1.517-2.705c-1.066-0.589-2.237-0.903-3.516-0.881c-3.36,0.058-6.072,2.303-6.008,5.944
	c0.065,3.662,2.979,5.806,6.339,5.749c1.323-0.023,2.598-0.409,3.611-1.074l-1.707-2.595C92.787,25.25,92.031,25.47,91.334,25.483"
	/>
<path class="st1" d="M43.59,25.608c-1.104,0.177-1.724-0.258-1.724-1.445V12.104H38.55v12.785c0,2.872,1.659,4.063,4.909,3.453
	c0.261-0.048,0.866-0.19,1.028-0.264l-0.721-2.502C43.706,25.588,43.647,25.599,43.59,25.608"/>
<path class="st1" d="M80.328,15.673c0.983,0,1.779-0.797,1.779-1.78s-0.796-1.78-1.779-1.78s-1.78,0.797-1.78,1.78
	S79.345,15.673,80.328,15.673"/>
<rect x="97" y="12.104" class="st1" width="3.76" height="16.244"/>
<path class="st1" d="M112.124,28.347c-0.646,0-1.656-0.035-2.384-0.133c-2.617-0.352-4.74-1.752-5.977-3.939
	c-0.711-1.257-1.072-2.673-1.072-4.205c0-4.574,3.763-8.294,8.388-8.294s8.388,3.72,8.388,8.294c0,1.356-0.335,2.697-0.97,3.893
	l-3.394-1.834c0.295-0.64,0.452-1.347,0.452-2.06c0-2.592-2.008-4.701-4.476-4.701c-2.468,0-4.476,2.109-4.476,4.701
	c0,0.823,0.208,1.636,0.599,2.348c0.645,1.17,1.706,1.996,2.912,2.269c0.425,0.094,0.986,0.136,1.82,0.136h6.509l1.999,3.525
	H112.124z"/>
</svg>
