<svg width="24" height="24" viewBox="3 0 24 24" fill="none" xmlns="http://www.w3.org/2000/svg">
<path fill-rule="evenodd" clip-rule="evenodd" d="M19.4904 11.0399L13.064 16.1559C12.5175 16.5909 11.743 16.5912 11.1963 16.1565L4.76038 11.0399L4.60419 10.9155C4.51566 10.8449 4.43536 10.7646 4.3649 10.676C3.84924 10.0276 3.95682 9.08398 4.60519 8.56833L11.1967 3.32602C11.7433 2.89133 12.5175 2.89133 13.0641 3.32602L19.651 8.56473C19.7408 8.63614 19.8221 8.71759 19.8933 8.80753C20.4076 9.457 20.298 10.4004 19.6485 10.9147L19.4904 11.0399ZM5.46631 14.2064L11.1867 18.7542C11.7333 19.1887 12.5074 19.1886 13.0539 18.754L18.779 14.2007L18.7876 14.1939C19.185 13.8857 19.7571 13.9579 20.0654 14.3552L20.0693 14.3604C20.3763 14.7619 20.2997 15.3363 19.8982 15.6433L13.04 20.8868C12.5021 21.298 11.7555 21.2979 11.2177 20.8866L4.35684 15.6391L4.35254 15.6358C3.95554 15.3284 3.88297 14.7573 4.19037 14.3604L4.19748 14.3513C4.50784 13.9609 5.07593 13.896 5.46631 14.2064Z" fill="black"/>
</svg>
