<svg width="24" height="24" viewBox="0 0 24 24" fill="none" xmlns="http://www.w3.org/2000/svg">
<path d="M18.4274 18.6612C17.9756 19.1129 17.2431 19.1129 16.7914 18.6612L12 13.8698L7.20864 18.6612C6.75685 19.1129 6.02436 19.1129 5.57257 18.6612L5.33884 18.4274C4.88705 17.9756 4.88705 17.2431 5.33884 16.7914L10.1302 12L5.33884 7.20864C4.88705 6.75685 4.88705 6.02436 5.33884 5.57257L5.57257 5.33884C6.02436 4.88705 6.75685 4.88705 7.20864 5.33884L12 10.1302L16.7914 5.33884C17.2431 4.88705 17.9756 4.88705 18.4274 5.33884L18.6612 5.57257C19.1129 6.02436 19.1129 6.75685 18.6612 7.20864L13.8698 12L18.6612 16.7914C19.1129 17.2431 19.1129 17.9756 18.6612 18.4274L18.4274 18.6612Z" fill="#D96BE2"/>
</svg>
