<svg width="24" height="24" viewBox="0 0 24 24" fill="none" xmlns="http://www.w3.org/2000/svg">
<path fill-rule="evenodd" clip-rule="evenodd" d="M12.755 12.7249C12.555 12.9259 12.291 13.0208 12.013 13.0328C11.733 13.0448 11.471 12.9089 11.272 12.7249C11.078 12.5489 10.964 12.2409 10.964 11.9839C10.964 11.7149 11.081 11.4329 11.272 11.2429L11.284 11.2308C11.468 11.0418 11.656 10.8549 11.844 10.6689C11.938 10.5759 12.032 10.4829 12.125 10.3899L16.418 6.09784H15.068C14.783 6.09784 14.531 5.97983 14.327 5.79083C14.12 5.60183 14.031 5.32083 14.019 5.04983C14.008 4.78883 14.145 4.48986 14.327 4.30786C14.517 4.11786 14.799 4.00085 15.068 4.00085H18.95C19.122 3.99285 19.288 4.04183 19.436 4.12283C19.533 4.17383 19.621 4.23786 19.691 4.30786C19.7 4.31586 19.708 4.32384 19.716 4.33184C19.811 4.42584 19.879 4.54183 19.925 4.66583C19.943 4.71183 19.958 4.75986 19.969 4.80786C19.989 4.88786 19.999 4.96883 19.999 5.04983C20 5.06783 20 5.08784 19.999 5.10684V8.92984C19.999 9.21484 19.881 9.46683 19.692 9.67083C19.503 9.87783 19.221 9.96685 18.95 9.97885C18.69 9.98885 18.391 9.85283 18.209 9.67083C18.018 9.48083 17.901 9.19884 17.901 8.92984V7.58084L12.755 12.7249ZM17.901 12.2678C17.901 11.9829 18.02 11.7309 18.209 11.5279C18.398 11.3219 18.679 11.2329 18.95 11.2209C19.211 11.2099 19.51 11.3469 19.692 11.5279C19.882 11.7189 19.999 11.9999 19.999 12.2689V16.2548C19.999 16.4938 19.968 16.7298 19.931 16.9658C19.879 17.3058 19.753 17.6218 19.609 17.9308C19.326 18.5398 18.837 19.0448 18.282 19.4118C17.63 19.8448 16.864 19.9988 16.093 19.9988H8.539C8.448 19.9988 8.35801 19.9988 8.26801 19.9998C8.08701 19.9998 7.90601 19.9998 7.72501 19.9988C6.41001 19.9938 5.15499 19.2808 4.49699 18.1358C4.17399 17.5728 4.00301 16.9238 4.00101 16.2758V8.46084C4.00101 8.37784 4.001 8.29583 4 8.21383C4 8.05083 4.00001 7.88685 4.00101 7.72485C4.00401 7.04485 4.19101 6.34486 4.55701 5.76886C4.73201 5.49086 4.945 5.22084 5.19 4.99884C5.438 4.77584 5.716 4.56785 6.017 4.41885C6.559 4.15185 7.133 4.00283 7.739 4.00283H11.732C12.015 4.00283 12.269 4.12185 12.473 4.31085C12.679 4.49985 12.769 4.78085 12.781 5.05185C12.791 5.31185 12.655 5.61084 12.473 5.79284C12.283 5.98384 12.001 6.10086 11.732 6.10086H7.998H7.93401C7.79201 6.09986 7.649 6.09983 7.507 6.10983C7.365 6.13683 7.226 6.17484 7.091 6.22384C6.961 6.28584 6.83699 6.35883 6.71899 6.44183C6.61799 6.52883 6.524 6.62284 6.437 6.72384C6.355 6.84184 6.282 6.96585 6.22 7.09585C6.17 7.23385 6.133 7.37385 6.106 7.51785C6.1 7.58685 6.097 7.65586 6.097 7.72586C6.096 7.93686 6.097 8.14884 6.097 8.36084C6.097 8.46684 6.097 8.57283 6.097 8.67883V15.5238C6.097 15.6138 6.096 15.7039 6.095 15.7949C6.091 16.0249 6.088 16.2568 6.106 16.4848C6.133 16.6288 6.171 16.7699 6.22 16.9069C6.283 17.0359 6.356 17.1598 6.439 17.2788C6.526 17.3788 6.61999 17.4728 6.72099 17.5598C6.83899 17.6418 6.963 17.7149 7.093 17.7779C7.231 17.8269 7.371 17.8648 7.515 17.8918C7.584 17.8968 7.654 17.8998 7.724 17.8998C7.935 17.9008 8.146 17.9008 8.358 17.8998C8.464 17.8998 8.571 17.8998 8.677 17.8998H15.525C15.614 17.8998 15.705 17.9009 15.796 17.9029C16.025 17.9059 16.258 17.9088 16.486 17.8908C16.63 17.8638 16.771 17.8259 16.908 17.7769C17.037 17.7139 17.161 17.6408 17.279 17.5588C17.38 17.4718 17.474 17.3769 17.561 17.2769C17.644 17.1589 17.716 17.0338 17.779 16.9038C17.827 16.7688 17.865 16.6308 17.891 16.4898C17.903 16.3348 17.902 16.1789 17.901 16.0229C17.901 15.9849 17.901 15.9479 17.901 15.9109V12.2678Z" fill="#D96BE2"/>
</svg>
