<svg width="10" height="10" viewBox="0 0 10 10" fill="none" xmlns="http://www.w3.org/2000/svg">
<path d="M9.13192 9.28217C8.84149 9.57261 8.37059 9.57261 8.08016 9.28217L5 6.20201L1.91984 9.28217C1.6294 9.57261 1.15852 9.57261 0.868079 9.28217L0.717828 9.13192C0.427392 8.84149 0.427391 8.3706 0.717827 8.08016L3.79799 5L0.717827 1.91984C0.427391 1.6294 0.427391 1.15851 0.717827 0.868079L0.868079 0.717827C1.15851 0.427391 1.6294 0.427391 1.91984 0.717827L5 3.79799L8.08016 0.717827C8.3706 0.427391 8.84149 0.427391 9.13192 0.717827L9.28217 0.868079C9.57261 1.15851 9.57261 1.6294 9.28217 1.91984L6.20201 5L9.28217 8.08016C9.57261 8.3706 9.57261 8.84149 9.28217 9.13192L9.13192 9.28217Z" fill="#999999"/>
</svg>
