<svg width="24" height="24" viewBox="0 0 24 24" fill="none" xmlns="http://www.w3.org/2000/svg">
<path d="M6.58222 5H17.6578C18.0774 5 18.4799 5.1667 18.7766 5.46342C19.0733 5.76015 19.24 6.16259 19.24 6.58222V17.6578C19.24 18.0774 19.0733 18.4799 18.7766 18.7766C18.4799 19.0733 18.0774 19.24 17.6578 19.24H6.58222C6.16259 19.24 5.76015 19.0733 5.46342 18.7766C5.1667 18.4799 5 18.0774 5 17.6578V6.58222C5 6.16259 5.1667 5.76015 5.46342 5.46342C5.76015 5.1667 6.16259 5 6.58222 5V5ZM12.9111 12.9111V8.16444H11.3289V12.9111H12.9111ZM12.9111 16.0756V14.4933H11.3289V16.0756H12.9111Z" fill="#C5C3C0"/>
</svg>
